<?xml version="1.0" encoding="UTF-8"?>
<svg id="Layer_1" data-name="Layer 1" xmlns="http://www.w3.org/2000/svg" viewBox="0 0 410.55319 410.55319">
  <path d="M350.42621,60.12285l-3.75103,21.14834,21.45565-.96105-6.47649,20.48189,21.39992,1.84445-9.10042,19.4579,20.97484,4.62484-11.56701,18.10724,20.19536,7.31971-13.82854,16.4403,19.0682,9.89678-15.85372,14.49338,17.61022,12.30037-17.61022,12.29956,15.85372,14.49015-19.0682,9.9,13.82854,16.43626-20.19536,7.32374,11.56701,18.10321-20.97484,4.62484,9.10042,19.45862-21.40799,1.84768,6.49263,20.47776-21.46372-.96086,3.75103,21.14816-21.14825-3.75417,.96902,21.45888-20.48582-6.48059-1.84445,21.39667-19.4579-9.0971-4.62478,20.97477-18.1073-11.563-7.31971,20.19536-16.44024-13.82845-9.89684,19.06416-14.49015-15.85381-12.3036,17.61435-12.29956-17.61435-14.49015,15.85381-9.89597-19.06416-16.4403,13.82845-7.32374-20.19536-18.10321,11.563-4.62484-20.9789-19.45871,9.10123-1.84768-21.4007-20.47776,6.48462,.96101-21.45888-21.1483,3.75417,3.75426-21.15219-21.45888,.9649,6.48059-20.4817-21.39675-1.84373,9.10122-19.45862-20.97477-4.62484,11.55888-18.10653-20.19536-7.31639,13.82854-16.44433L1.76059,232.07075l15.85367-14.49822L0,205.277l17.61426-12.30037-15.85367-14.49338,19.06411-9.90081-13.82854-16.43626,20.19536-7.32374-11.56291-18.10321,20.97881-4.62484-9.10122-19.4579,21.40079-1.84445-6.48462-20.48189,21.45888,.96105-3.75426-21.14834,21.15228,3.75516-.96499-21.45969,20.48179,6.48462,1.84364-21.39998,19.45871,9.10032,4.62484-20.97871,18.10644,11.56282,7.32052-20.19446,16.4403,13.82773L178.48648,1.7565l14.49418,15.85362L205.27619,0l12.3036,17.61013,14.49418-15.85362,9.89678,19.06416,16.4403-13.82773,7.32374,20.19446,18.09924-11.55878,4.62478,20.97468,19.4579-9.10032,1.84445,21.39998,20.48582-6.48462-.96902,21.45969,21.14825-3.75516Z" style="fill: none; fill-rule: evenodd;"/>
  <path d="M325.69321,84.86408c66.49374,66.48977,66.48568,174.33525,0,240.82503-66.49387,66.49381-174.33935,66.49381-240.82913,0-66.49381-66.48977-66.49381-174.33525,0-240.82503,66.48977-66.49381,174.33525-66.49381,240.82913,0Z" style="fill: none; fill-rule: evenodd;"/>
  <path d="M316.9784,93.5747c61.67936,61.67945,61.67936,161.72031,0,223.39958-30.84008,30.84017-71.26872,46.25981-111.69817,46.25981v5.71247c41.89468,0,83.78533-15.97959,115.74047-47.93392,63.90948-63.90948,63.90948-167.56662,0-231.48023-31.95514-31.95424-73.84579-47.93383-115.74047-47.93383v5.72054c40.42945,0,80.85809,15.4156,111.69817,46.25559Zm-111.69817,269.65939c-40.42864,0-80.85809-15.41964-111.69737-46.25981-61.67936-61.67927-61.67936-161.72013,0-223.39958,30.83927-30.83999,71.26872-46.25559,111.69737-46.25559v-5.72054c-41.89065,0-83.78856,15.97959-115.7437,47.93383-63.90942,63.91361-63.90942,167.57075,0,231.48023,31.95514,31.95434,73.85305,47.93392,115.7437,47.93392v-5.71247Z" style="fill: #fff; fill-rule: evenodd;"/>
  <path d="M245.83157,205.277l-85.60563-85.60154c-3.75022,.01533-73.67151,.00403-60.25689-.00403l85.60557,85.60557-85.60154,85.60073,60.25689-.00403,85.6016-85.5967Z" style="fill: #f9f9fa; fill-rule: evenodd;"/>
  <path d="M330.40432,205.2649l-85.60073-85.58137c-3.74699-.00807-73.67232-.0121-60.24963-.0121l85.61687,85.60557-85.6209,85.60073,60.25366-.00726,85.60073-85.60557Z" style="fill: #68cad9; fill-rule: evenodd;"/>
</svg>